<mxfile host="app.diagrams.net" modified="2022-06-24T18:55:54.723Z" agent="5.0 (Macintosh; Intel Mac OS X 10_15_7) AppleWebKit/537.36 (KHTML, like Gecko) Chrome/103.0.0.0 Safari/537.36" etag="2ckn2GQtpI3amBs7__TS" version="20.0.3" type="github">
  <diagram id="jRwxQuBZ4n3HDCxRHNiQ" name="Page-1">
    <mxGraphModel dx="2306" dy="1075" grid="1" gridSize="10" guides="1" tooltips="1" connect="1" arrows="1" fold="1" page="1" pageScale="1" pageWidth="827" pageHeight="1169" math="0" shadow="0">
      <root>
        <mxCell id="0" />
        <mxCell id="1" parent="0" />
        <mxCell id="E9wrrEjz9OF_2Pq9urvL-19" style="edgeStyle=orthogonalEdgeStyle;rounded=0;orthogonalLoop=1;jettySize=auto;html=1;" edge="1" parent="1" source="E9wrrEjz9OF_2Pq9urvL-14">
          <mxGeometry relative="1" as="geometry">
            <mxPoint x="440" y="470" as="targetPoint" />
            <Array as="points">
              <mxPoint x="640" y="670" />
              <mxPoint x="440" y="670" />
            </Array>
          </mxGeometry>
        </mxCell>
        <mxCell id="E9wrrEjz9OF_2Pq9urvL-10" value="Federation" style="triangle;whiteSpace=wrap;html=1;rotation=-90;" vertex="1" parent="1">
          <mxGeometry x="390" y="360" width="100" height="110" as="geometry" />
        </mxCell>
        <mxCell id="E9wrrEjz9OF_2Pq9urvL-13" style="edgeStyle=orthogonalEdgeStyle;rounded=0;orthogonalLoop=1;jettySize=auto;html=1;entryX=0;entryY=0.5;entryDx=0;entryDy=0;" edge="1" parent="1" source="E9wrrEjz9OF_2Pq9urvL-8" target="E9wrrEjz9OF_2Pq9urvL-10">
          <mxGeometry relative="1" as="geometry">
            <mxPoint x="352" y="620" as="targetPoint" />
            <Array as="points">
              <mxPoint x="500" y="670" />
              <mxPoint x="440" y="670" />
            </Array>
          </mxGeometry>
        </mxCell>
        <mxCell id="E9wrrEjz9OF_2Pq9urvL-12" style="edgeStyle=orthogonalEdgeStyle;rounded=0;orthogonalLoop=1;jettySize=auto;html=1;entryX=0;entryY=0.5;entryDx=0;entryDy=0;" edge="1" parent="1" source="E9wrrEjz9OF_2Pq9urvL-2" target="E9wrrEjz9OF_2Pq9urvL-10">
          <mxGeometry relative="1" as="geometry">
            <mxPoint x="420" y="510" as="targetPoint" />
            <Array as="points">
              <mxPoint x="350" y="670" />
              <mxPoint x="440" y="670" />
            </Array>
          </mxGeometry>
        </mxCell>
        <mxCell id="E9wrrEjz9OF_2Pq9urvL-22" value="" style="edgeStyle=orthogonalEdgeStyle;rounded=0;orthogonalLoop=1;jettySize=auto;html=1;entryX=0;entryY=0.5;entryDx=0;entryDy=0;startArrow=none;" edge="1" parent="1" source="E9wrrEjz9OF_2Pq9urvL-35" target="E9wrrEjz9OF_2Pq9urvL-10">
          <mxGeometry relative="1" as="geometry">
            <mxPoint x="442" y="570" as="targetPoint" />
            <Array as="points">
              <mxPoint x="440" y="570" />
            </Array>
          </mxGeometry>
        </mxCell>
        <mxCell id="E9wrrEjz9OF_2Pq9urvL-24" value="" style="edgeStyle=orthogonalEdgeStyle;rounded=0;orthogonalLoop=1;jettySize=auto;html=1;entryX=0.5;entryY=0;entryDx=0;entryDy=0;" edge="1" parent="1" source="E9wrrEjz9OF_2Pq9urvL-17">
          <mxGeometry relative="1" as="geometry">
            <mxPoint x="70" y="750" as="targetPoint" />
          </mxGeometry>
        </mxCell>
        <mxCell id="E9wrrEjz9OF_2Pq9urvL-33" value="" style="edgeStyle=orthogonalEdgeStyle;rounded=0;orthogonalLoop=1;jettySize=auto;html=1;entryX=0;entryY=0.5;entryDx=0;entryDy=0;exitX=0.5;exitY=0;exitDx=0;exitDy=0;exitPerimeter=0;" edge="1" parent="1" source="E9wrrEjz9OF_2Pq9urvL-27" target="E9wrrEjz9OF_2Pq9urvL-10">
          <mxGeometry relative="1" as="geometry">
            <mxPoint x="70" y="750" as="sourcePoint" />
            <Array as="points">
              <mxPoint x="70" y="670" />
              <mxPoint x="440" y="670" />
            </Array>
          </mxGeometry>
        </mxCell>
        <mxCell id="E9wrrEjz9OF_2Pq9urvL-27" value="Unidades" style="shape=cylinder3;whiteSpace=wrap;html=1;boundedLbl=1;backgroundOutline=1;size=15;" vertex="1" parent="1">
          <mxGeometry x="40" y="860" width="60" height="80" as="geometry" />
        </mxCell>
        <mxCell id="E9wrrEjz9OF_2Pq9urvL-35" value="Unidades" style="whiteSpace=wrap;html=1;aspect=fixed;" vertex="1" parent="1">
          <mxGeometry x="320" y="535" width="70" height="70" as="geometry" />
        </mxCell>
        <mxCell id="E9wrrEjz9OF_2Pq9urvL-36" value="" style="edgeStyle=orthogonalEdgeStyle;rounded=0;orthogonalLoop=1;jettySize=auto;html=1;entryX=0;entryY=0.5;entryDx=0;entryDy=0;endArrow=none;" edge="1" parent="1" source="E9wrrEjz9OF_2Pq9urvL-17" target="E9wrrEjz9OF_2Pq9urvL-35">
          <mxGeometry relative="1" as="geometry">
            <mxPoint x="262" y="570" as="sourcePoint" />
            <mxPoint x="440" y="465" as="targetPoint" />
            <Array as="points" />
          </mxGeometry>
        </mxCell>
        <mxCell id="E9wrrEjz9OF_2Pq9urvL-1" value="Regras" style="shape=cylinder3;whiteSpace=wrap;html=1;boundedLbl=1;backgroundOutline=1;size=15;" vertex="1" parent="1">
          <mxGeometry x="320" y="860" width="60" height="80" as="geometry" />
        </mxCell>
        <mxCell id="E9wrrEjz9OF_2Pq9urvL-2" value="Regras" style="whiteSpace=wrap;html=1;aspect=fixed;" vertex="1" parent="1">
          <mxGeometry x="310" y="690" width="80" height="80" as="geometry" />
        </mxCell>
        <mxCell id="E9wrrEjz9OF_2Pq9urvL-6" value="" style="edgeStyle=orthogonalEdgeStyle;rounded=0;orthogonalLoop=1;jettySize=auto;html=1;" edge="1" parent="1" source="E9wrrEjz9OF_2Pq9urvL-1" target="E9wrrEjz9OF_2Pq9urvL-2">
          <mxGeometry relative="1" as="geometry" />
        </mxCell>
        <mxCell id="E9wrrEjz9OF_2Pq9urvL-3" value="Serviços" style="shape=cylinder3;whiteSpace=wrap;html=1;boundedLbl=1;backgroundOutline=1;size=15;" vertex="1" parent="1">
          <mxGeometry x="160" y="860" width="60" height="80" as="geometry" />
        </mxCell>
        <mxCell id="E9wrrEjz9OF_2Pq9urvL-4" value="Serviços" style="whiteSpace=wrap;html=1;aspect=fixed;" vertex="1" parent="1">
          <mxGeometry x="150" y="750" width="80" height="80" as="geometry" />
        </mxCell>
        <mxCell id="E9wrrEjz9OF_2Pq9urvL-5" value="" style="edgeStyle=orthogonalEdgeStyle;rounded=0;orthogonalLoop=1;jettySize=auto;html=1;" edge="1" parent="1" source="E9wrrEjz9OF_2Pq9urvL-3" target="E9wrrEjz9OF_2Pq9urvL-4">
          <mxGeometry relative="1" as="geometry" />
        </mxCell>
        <mxCell id="E9wrrEjz9OF_2Pq9urvL-7" value="Produtos" style="shape=cylinder3;whiteSpace=wrap;html=1;boundedLbl=1;backgroundOutline=1;size=15;" vertex="1" parent="1">
          <mxGeometry x="470" y="870" width="60" height="80" as="geometry" />
        </mxCell>
        <mxCell id="E9wrrEjz9OF_2Pq9urvL-8" value="Produtos" style="whiteSpace=wrap;html=1;aspect=fixed;" vertex="1" parent="1">
          <mxGeometry x="460" y="750" width="80" height="80" as="geometry" />
        </mxCell>
        <mxCell id="E9wrrEjz9OF_2Pq9urvL-9" value="" style="edgeStyle=orthogonalEdgeStyle;rounded=0;orthogonalLoop=1;jettySize=auto;html=1;" edge="1" parent="1" source="E9wrrEjz9OF_2Pq9urvL-7" target="E9wrrEjz9OF_2Pq9urvL-8">
          <mxGeometry relative="1" as="geometry" />
        </mxCell>
        <mxCell id="E9wrrEjz9OF_2Pq9urvL-14" value="Especialista" style="whiteSpace=wrap;html=1;aspect=fixed;" vertex="1" parent="1">
          <mxGeometry x="600" y="750" width="80" height="80" as="geometry" />
        </mxCell>
        <mxCell id="E9wrrEjz9OF_2Pq9urvL-16" value="" style="edgeStyle=orthogonalEdgeStyle;rounded=0;orthogonalLoop=1;jettySize=auto;html=1;" edge="1" parent="1" source="E9wrrEjz9OF_2Pq9urvL-15" target="E9wrrEjz9OF_2Pq9urvL-14">
          <mxGeometry relative="1" as="geometry" />
        </mxCell>
        <mxCell id="E9wrrEjz9OF_2Pq9urvL-15" value="Especialistas" style="shape=cylinder3;whiteSpace=wrap;html=1;boundedLbl=1;backgroundOutline=1;size=15;" vertex="1" parent="1">
          <mxGeometry x="605" y="870" width="70" height="80" as="geometry" />
        </mxCell>
        <mxCell id="E9wrrEjz9OF_2Pq9urvL-34" style="edgeStyle=orthogonalEdgeStyle;rounded=0;orthogonalLoop=1;jettySize=auto;html=1;" edge="1" parent="1" source="E9wrrEjz9OF_2Pq9urvL-17" target="E9wrrEjz9OF_2Pq9urvL-14">
          <mxGeometry relative="1" as="geometry">
            <Array as="points">
              <mxPoint x="210" y="640" />
              <mxPoint x="640" y="640" />
            </Array>
          </mxGeometry>
        </mxCell>
        <mxCell id="E9wrrEjz9OF_2Pq9urvL-17" value="Alteração da Unidade" style="shape=dataStorage;whiteSpace=wrap;html=1;fixedSize=1;" vertex="1" parent="1">
          <mxGeometry x="150" y="530" width="112" height="80" as="geometry" />
        </mxCell>
        <mxCell id="E9wrrEjz9OF_2Pq9urvL-20" value="" style="edgeStyle=orthogonalEdgeStyle;rounded=0;orthogonalLoop=1;jettySize=auto;html=1;endArrow=none;" edge="1" parent="1" source="E9wrrEjz9OF_2Pq9urvL-4">
          <mxGeometry relative="1" as="geometry">
            <mxPoint x="190" y="750" as="sourcePoint" />
            <mxPoint x="430" y="550" as="targetPoint" />
            <Array as="points">
              <mxPoint x="190" y="670" />
              <mxPoint x="440" y="670" />
              <mxPoint x="440" y="550" />
            </Array>
          </mxGeometry>
        </mxCell>
        <mxCell id="E9wrrEjz9OF_2Pq9urvL-40" value="" style="edgeStyle=orthogonalEdgeStyle;rounded=0;orthogonalLoop=1;jettySize=auto;html=1;entryX=0;entryY=0;entryDx=0;entryDy=27.5;entryPerimeter=0;" edge="1" parent="1" source="E9wrrEjz9OF_2Pq9urvL-38" target="E9wrrEjz9OF_2Pq9urvL-15">
          <mxGeometry relative="1" as="geometry">
            <mxPoint x="600" y="896" as="targetPoint" />
            <Array as="points">
              <mxPoint x="435" y="815" />
              <mxPoint x="435" y="970" />
              <mxPoint x="560" y="970" />
              <mxPoint x="560" y="890" />
              <mxPoint x="605" y="890" />
            </Array>
          </mxGeometry>
        </mxCell>
        <mxCell id="E9wrrEjz9OF_2Pq9urvL-38" value="Alteração da Regra&amp;nbsp;&amp;nbsp;" style="shape=dataStorage;whiteSpace=wrap;html=1;fixedSize=1;" vertex="1" parent="1">
          <mxGeometry x="300" y="790" width="110" height="50" as="geometry" />
        </mxCell>
      </root>
    </mxGraphModel>
  </diagram>
</mxfile>
